<svg width="56" height="57" viewBox="0 0 56 57" fill="none" xmlns="http://www.w3.org/2000/svg">
<g clip-path="url(#clip0_89_374)">
<path d="M14.5915 38.8015C25.0204 42.8714 33.8954 43.6642 43.9527 37.3292C43.879 37.4398 41.8895 40.3871 36.6579 41.8976C37.7631 43.4081 39.2737 45.1396 39.2737 45.1396C42.6264 45.1396 45.9053 44.1817 48.7421 42.3396C50.9527 40.8659 52.2052 38.3238 51.9473 35.6713C51.5052 31.1396 50.4368 26.7186 48.779 22.4818C46.679 16.9556 41.6316 13.1239 35.7737 12.5713C35.2579 12.5344 34.8895 12.5344 34.6685 12.5344L34.0791 13.1238C40.8212 15.0396 44.1738 18.0238 44.2474 18.1344C33.8948 12.9028 21.6632 12.8292 11.2369 17.9134C11.2369 17.9134 14.5527 14.6344 21.8842 12.9028L21.4421 12.4607C20.6684 12.4607 19.9315 12.5344 19.1579 12.6449C13.7421 13.5659 9.21058 17.287 7.25791 22.408C5.56314 26.8291 4.45791 31.4712 4.05267 36.187C3.83163 38.6922 5.01058 41.1607 7.07372 42.5976C9.8 44.4028 13.0421 45.3607 16.321 45.3607C16.321 45.3607 17.6473 43.6291 18.9737 42.0817C14 40.608 11.9737 37.6607 11.9369 37.5501L12.8729 38.0281C13.4325 38.314 14.0061 38.573 14.5915 38.8015ZM20.3737 35.5976C17.979 35.5238 16.1 33.4976 16.1737 31.0659C16.2474 28.7817 18.0895 26.9396 20.3737 26.8659C22.7685 26.9396 24.6474 28.9659 24.5737 31.3976C24.4631 33.6818 22.6579 35.5239 20.3737 35.5976ZM35.4052 35.5976C33.0105 35.5238 31.1315 33.4976 31.2052 31.0659C31.279 28.7817 33.121 26.9396 35.4052 26.8659C37.8 26.9396 39.679 28.9659 39.6052 31.3976C39.5316 33.6818 37.6894 35.5239 35.4052 35.5976Z" fill="white"/>
</g>
<defs>
<clipPath id="clip0_89_374">
<rect width="56" height="56" fill="white" transform="translate(0 0.929199)"/>
</clipPath>
</defs>
</svg>
