<svg width="45" height="46" viewBox="0 0 45 46" fill="none" xmlns="http://www.w3.org/2000/svg">
<g clip-path="url(#clip0_89_362)">
<path d="M45 9.47639C43.3266 10.2104 41.5434 10.697 39.6844 10.9333C41.5969 9.79139 43.0566 7.99701 43.7428 5.8342C41.9597 6.89732 39.9909 7.64826 37.8928 8.06732C36.1997 6.26451 33.7866 5.14795 31.1541 5.14795C26.0466 5.14795 21.9347 9.29357 21.9347 14.3758C21.9347 15.107 21.9966 15.8101 22.1484 16.4795C14.4788 16.1054 7.69219 12.4295 3.13312 6.82982C2.33719 8.21076 1.87031 9.79139 1.87031 11.4929C1.87031 14.6879 3.51562 17.5201 5.96812 19.1598C4.48594 19.1317 3.03187 18.7014 1.8 18.0236C1.8 18.0517 1.8 18.0883 1.8 18.1248C1.8 22.6079 4.99781 26.3317 9.19125 27.1895C8.44031 27.3948 7.62187 27.4933 6.7725 27.4933C6.18188 27.4933 5.58562 27.4595 5.02594 27.3358C6.22125 30.9892 9.61313 33.6751 13.6463 33.7623C10.5075 36.2176 6.52219 37.697 2.20781 37.697C1.45125 37.697 0.725625 37.6633 0 37.5704C4.08656 40.2058 8.92969 41.7104 14.1525 41.7104C31.1287 41.7104 40.41 27.6479 40.41 15.4586C40.41 15.0508 40.3959 14.657 40.3763 14.2661C42.2072 12.9667 43.7456 11.3439 45 9.47639Z" fill="white"/>
</g>
<defs>
<clipPath id="clip0_89_362">
<rect width="45" height="45" fill="white" transform="translate(0 0.929199)"/>
</clipPath>
</defs>
</svg>
